<?xml version="1.0" encoding="utf-8"?>
<!-- Generator: Adobe Illustrator 12.0.0, SVG Export Plug-In . SVG Version: 6.00 Build 51448)  -->
<!DOCTYPE svg PUBLIC "-//W3C//DTD SVG 1.1//EN" "http://www.w3.org/Graphics/SVG/1.1/DTD/svg11.dtd" [
	<!ENTITY ns_svg "http://www.w3.org/2000/svg">
	<!ENTITY ns_xlink "http://www.w3.org/1999/xlink">
]>
<svg  version="1.1" id="Layer_1" xmlns="&ns_svg;" xmlns:xlink="&ns_xlink;" width="32.456" height="44.094"
	 viewBox="0 0 32.456 44.094" overflow="visible" enable-background="new 0 0 32.456 44.094" xml:space="preserve">
<path fill="#A80069" d="M14.059,30.739c-0.166,0.826-2.187,3.424-2.187,3.424s0.247,0.165,0.495,0.082
	c0.136-0.045,0.527-0.649,0.698-0.933L19.472,37c-0.25,0.26-0.717,0.717-0.92,1.025c-0.364,0.55-0.003,1.58,0.776,1.112
	c0.071-0.043,0.134-0.18,0.188-0.201c0.247-0.105,0.517-0.197,0.809-0.229c0.266-0.03,0.389-0.408,0.601-0.491
	c1.07-0.423,1.652,0.6,2.334,1.31c0.277,0.285,0.855,0.133,1.159,0.41c0.314,0.287,0.085,0.834,0.259,1.169
	c0.351,0.665,1.262,0.853,1.635,1.537c0.118,0.216,0.039,0.528,0.039,0.804c-1.292-0.058-2.588,0.063-3.877-0.083
	c-0.166-0.536-0.517-0.97-0.783-1.464c-0.063-0.116-0.33-0.117-0.442-0.277c-0.157-0.225-0.022-0.518-0.131-0.714
	c-0.155-0.279-0.568-0.449-0.846-0.303c-0.206,0.11-0.374,0.391-0.559,0.575c-0.313,0.313-0.893,0.083-1.247,0.334
	c-0.357,0.254-0.727,0.463-0.998,0.799c-0.179,0.224-0.184,0.566-0.378,0.785c-0.267,0.301-0.709,0.401-1.025,0.219
	c-0.75-0.438-1.322-0.071-1.777,0.527c-0.032,0.041-0.169,0.041-0.217,0c-0.299-0.264-0.538-0.731-0.996-0.619
	c-0.234,0.058-0.463,0.159-0.667,0.304c-0.149,0.104-0.258,0.211-0.415,0.217c-0.913,0.039-1.405,0.021-2.102-0.507
	c-0.443-0.334-1.45-0.771-2.033-1.004c-0.173-0.07-0.491,0.02-0.533-0.198c-0.179-0.911-1.083-1.207-1.838-0.877
	c-0.579,0.255-0.404,0.94-0.121,1.34c0.313,0.438,1.013,1.143,0.409,1.464c-0.297,0.156-0.839,0.216-1.073-0.065
	c-0.473-0.567-0.826-1.354-1.695-1.094c-0.617,0.184-0.729,0.909-1.264,1.178c-0.249,0.125-0.639,0.126-0.86-0.071
	c-0.203-0.182-0.043-0.54-0.14-0.782c-0.094-0.233-0.427-0.258-0.621-0.435c-0.166-0.152-0.146-0.412-0.055-0.544
	c0.156-0.23,0.521-0.146,0.607-0.442c0.111-0.384-0.172-0.785-0.031-1.136c0.044-0.108,0.253-0.176,0.39-0.23
	c0.558-0.218,1.04,0.671,1.502,0.313c0.521-0.401,0.516-1.181,1.054-1.651c0.493-0.434,1.074-0.222,1.633-0.068
	c0.509,0.137,0.848,0.626,1.409,0.634c0,0,0.124-0.537,0.124-0.785s-0.165-1.237-0.578-2.145c-0.413-0.907-0.907-1.651-0.907-1.651
	c-0.33-1.154-1.155-5.113-0.908-8.992c0.248-3.877,1.238-5.445,2.063-7.672c0.825-2.228,3.424-5.651,3.424-5.651
	c0.751-1.232,0.832-3.03-0.371-4.09C9.134,8.274,9.549,7.71,9.388,7.33C9.355,7.252,9.217,7.035,9.159,6.953l5.078-0.328
	c0.008,0.719,0.048,1.726,0.122,2.494c0.041,0.411,0.476,0.683,0.771,0.995c-0.188-0.594-0.304-1.209-0.364-1.819
	c-0.106-1.1-0.141-2.214,0.199-3.296c0.712-0.167,1.158,0.272,1.658,0.734c0.056,0.05,0.15-0.021,0.139-0.069
	c-0.126-0.575-0.651-0.764-1.081-1.038c-0.278-0.178-0.531-0.48-0.877-0.422c-0.229,0.039-0.448,0.04-0.473,0.302
	c-0.068,0.724-0.101,1.47-0.097,2.243L9.222,7.046C9.179,6.985,9.019,6.769,8.99,6.71C8.776,6.263,9.394,5.883,9.361,5.5
	C9.345,5.314,9.276,5.128,9.207,4.938C9.185,4.878,9.164,4.819,9.144,4.759C9.071,4.546,9.018,4.326,9.055,4.096
	c0.086-0.525,0.55-0.866,1.007-1.138c0.396-0.233-0.075-0.854,0.278-1.262c0.203-0.234,0.467-0.217,0.665-0.327
	c0.421-0.235,0.388-0.898,0.84-1.007c0.739-0.178,1.646,0.299,2.441-0.215c0.759-0.494,1.578,0.431,2.485,0.264
	c0.323-0.06,0.661-0.077,0.894,0.022c0.16,0.067,0.397,0.122,0.557,0.329c0.213,0.272,0.665-0.052,0.926,0.146
	c0.275,0.209,0.45,0.62,0.713,0.722c0.328,0.129,0.809-0.1,1.091,0.188c0.228,0.229,0.175,0.624-0.004,0.912
	c0,0,0.66,1.65,0.412,2.558c-0.247,0.907-0.247,1.732-0.247,2.146c0,0.412,0.742,0.989,0.578,1.32
	c-0.166,0.33-0.578,0.577-0.578,0.577l0.082,1.155l0.699-0.001l-0.234,0.5c-0.75-0.031-1.022,0.107-1.189,0.401
	c-0.286,0.506,0.188,1.106,0.07,1.692c-0.014,0.066-0.174,0.163-0.295,0.16c-1.567-0.034-3.184-0.503-4.674,0.084
	c-0.275,0.108-0.523,0.641-0.316,0.975c0.437,0.707,0.686,1.471,1.376,1.985c0.844,0.629,1.432,1.333,2.198,2.016
	c0.213,0.19,0.254,0.515,0.449,0.704c0.455,0.44,0.826,0.945,1.391,1.241c0.51,0.269,0.93-0.068,1.2-0.491
	c0.392-0.611,0.841-1.113,1.141-1.737c0.493-1.023,0.772-2.117,0.915-3.273c0.058-0.461,0.512-0.777,0.727-1.187
	c0.141-0.268,0.184-0.865-0.359-0.911c-0.861-0.072-1.265-0.925-1.947-1.387c-0.2-0.135-0.465-0.233-0.736-0.272l0.082-0.498h1.072
	c0,0,0.494-0.742,0.907-0.742s1.073,0.66,1.073,0.66h0.741c0,0,0.33-0.577,0.907-0.495c0.246,0.035,0.826,0.577,0.826,0.577
	l2.97,0.083c0,0,0.247,0.495,0.907,0.907c0.66,0.413,1.32,0.331,1.32,0.331c0.045,0.212,0.082,0.469-0.05,0.491
	c-1.279,0.226-2.54-0.077-3.761,0.232c-0.107,0.027-0.266,0.493-0.387,0.791c-0.264,0.65-0.76,1.186-1.008,1.841
	c-0.373,0.988-0.725,1.971-1.084,2.948l-1.592-0.421c0.311-0.954,0.516-2.058,0.826-3.036c-0.033,0.2-0.297,0.213-0.33,0.413
	c-0.027-0.056-0.055-0.111-0.082-0.166c-0.521,1.014-1.051,2.042-1.365,3.183c-0.311,1.124-0.875,2.348-1.976,2.926
	c-0.892,0.469-1.374-0.542-2.023-1.144c-1.182-1.093-2.388-2.567-3.711-3.314c0.107,0.427,0.463,0.681,0.698,1.048
	c0.756,1.182,1.75,2.005,2.663,3.022c0.674,0.752,1.295,2.197,2.361,1.607c0.656-0.361,1.271-0.977,1.594-1.729
	c0.112-0.259,0.171-0.566,0.321-0.781c0.455-0.655,0.854-1.553,1.087-2.233l1.594,0.438c-0.65,1.761-1.463,3.869-2.354,5.581
	c-0.52,1,0.959,1.386,1.512,2.049c0.102,0.123,0.191,0.257,0.26,0.403c0.203,0.434,0.331,0.911,0.454,1.278
	c0.222,0.668,0.329,1.402,0,2.228c-0.295,0.735-1.024,0.94-1.741,1.339c-0.756,0.423-0.184,1.112-0.486,1.795
	c-0.203,0.459-1.055,0.965-1.603,1.21c-0.265,0.118-0.337,0.448-0.369,0.726c-0.026,0.225-0.263,0.369-0.469,0.488
	c-0.333,0.194-0.696,0.125-1.063,0.197c-0.171,0.032-0.349,0.151-0.393,0.315c-0.128,0.473-0.095,0.974-0.388,1.372
	c-0.049,0.067-0.102,0.131-0.156,0.192l-6.482-3.53c0.118-0.202,0.239-0.427,0.361-0.64c0.33-0.577,1.402-2.146,1.898-2.888
	c0.642-0.965,2.719-2.416,3.051-2.805c0.496-0.578,2.064-1.732,2.064-1.732s-0.166,0.082-0.496,0.247s-0.989-0.083-1.237-0.247
	c-0.247-0.166-1.65-0.99-1.98-1.155c-0.331-0.165-2.64-2.392-2.64-2.392c-0.069-0.012-0.15,0.09-0.188,0.138
	c-0.14,0.185-0.137,0.471,0.007,0.62c0.407,0.425,0.915,0.757,1.013,1.352c0.143,0.865-0.01,1.684-0.169,2.545
	c-0.112,0.609-0.421,1.111-0.565,1.732c-0.095,0.4-0.211,0.787-0.101,1.149c0.042,0.138,0.356,0.183,0.409,0.285
	C14.486,30.053,14.445,30.589,14.059,30.739"/>
</svg>
